# xmcd
#
# Track frame offsets: 
#        150
#        10045
#        27324
#        41014
#        53343
#        64640
#        77825
#        88801
#        101799
#        114609
#        124872
#        136918
#        149588
#        159470
#
# Disc length: 2336 seconds
#
# Revision: 0
# Processed by: cddbd v1.5.2PL0 Copyright (c) Steve Scherf et al.
# Submitted via: ExactAudioCopy v0.99pb4
#
DISCID=b9091e0e
DTITLE=John Lee Hooker - Boom Boom Platinum Collection CD 2
DYEAR=2005
DGENRE=Blues
TTITLE0=Dimples
TTITLE1=Blues Before Sunrise
TTITLE2=The Road Is Rough
TTITLE3=Crawling King Snake
TTITLE4=Hard Hearted Woman
TTITLE5=Don't Look Back
TTITLE6=Bottle Up And Go
TTITLE7=Birmingham Blues
TTITLE8=Baby Lee
TTITLE9=Big Legs Tight Skirt
TTITLE10=I'm A Stranger
TTITLE11=Drug Store Woman
TTITLE12=Run On
TTITLE13=One Way Ticket
EXTD=
EXTT0=
EXTT1=
EXTT2=
EXTT3=
EXTT4=
EXTT5=
EXTT6=
EXTT7=
EXTT8=
EXTT9=
EXTT10=
EXTT11=
EXTT12=
EXTT13=
PLAYORDER=
